<!DOCTYPE svg PUBLIC "-//W3C//DTD SVG 1.1//EN" "http://www.w3.org/Graphics/SVG/1.1/DTD/svg11.dtd">
<!-- Uploaded to: SVG Repo, www.svgrepo.com, Transformed by: SVG Repo Mixer Tools -->
<svg fill="rgba(255, 178, 252, 1)" width="256px" height="256px" viewBox="0 0 100 100" version="1.1" xml:space="preserve" xmlns="http://www.w3.org/2000/svg" xmlns:xlink="http://www.w3.org/1999/xlink" stroke="rgba(255, 178, 252, 1)">
<g id="SVGRepo_bgCarrier" stroke-width="0"/>
<g id="SVGRepo_tracerCarrier" stroke-linecap="round" stroke-linejoin="round"/>
<g id="SVGRepo_iconCarrier"> <g id="_x31_"/> <g id="_x32_"/> <g id="_x33_"/> <g id="_x34_"/> <g id="_x35_"/> <g id="_x36_"/> <g id="_x37_"/> <g id="_x38_"/> <g id="_x39_"/> <g id="_x31_0"/> <g id="_x31_1"/> <g id="_x31_2"/> <g id="_x31_3"/> <g id="_x31_4"/> <g id="_x31_5"/> <g id="_x31_6"/> <g id="_x31_7"/> <g id="_x31_8"/> <g id="_x31_9"/> <g id="_x32_0"> <path d="M51.6,21.5c0.5-1,1.4-2.2,2.6-2c0.8,0.1,1.6-0.4,1.8-1.2c0.2-0.8-0.4-1.6-1.2-1.8c-3.5-0.7-5.5,2.4-6.4,4.7 c-3,0.5-5.3,3.2-5.3,6.3c0,3.5,2.9,6.4,6.4,6.4c3.5,0,6.4-2.9,6.4-6.4C56,24.8,54.1,22.4,51.6,21.5z M49.6,31 c-1.9,0-3.4-1.5-3.4-3.4c0-1.9,1.5-3.4,3.4-3.4c1.9,0,3.4,1.5,3.4,3.4C53,29.5,51.4,31,49.6,31z M87.4,77h-4.6V59.7 c0-5.1-4.2-9.3-9.3-9.3H26.5c-5.1,0-9.3,4.2-9.3,9.3V77h-4.6c-0.8,0-1.5,0.7-1.5,1.5s0.7,1.5,1.5,1.5h6.1h62.5h6.1 c0.8,0,1.5-0.7,1.5-1.5S88.2,77,87.4,77z M26.5,53.4h46.9c3.5,0,6.3,2.8,6.3,6.3v5.2c-2.3,0.9-9,3.1-14.7-0.3 c-9.8-5.9-20-5.9-30.2,0c-6.8,4.1-12.7,1.5-14.6,0.4v-5.4C20.3,56.2,23.1,53.4,26.5,53.4z M20.3,77v-8.6c1.7,0.7,4.1,1.5,7,1.5 c2.7,0,5.9-0.7,9.1-2.6c9.2-5.3,18.3-5.3,27.1,0c6.1,3.7,12.9,2.2,16.2,1V77H20.3z M61.8,31.7H38.2c-4,0-7.2,3.2-7.2,7.2v3 c0,0,0,0,0,0v10.1c0,0.8,0.7,1.5,1.5,1.5h34.9c0.8,0,1.5-0.7,1.5-1.5V38.8C68.9,34.9,65.7,31.7,61.8,31.7z M38.2,34.7h23.5 c2.3,0,4.2,1.9,4.2,4.2v0.5c-2.2-0.8-5.2-0.9-8.2,1.3c-3.5,2.6-6.7,0.1-6.8,0.1c-0.2-0.2-4.7-4-11.2-0.2c-3.4,2-5.1,1.2-5.7,0.7 v-2.4C34.1,36.5,35.9,34.7,38.2,34.7z M34.1,50.4v-5.9c1.7,0.5,4.2,0.4,7.2-1.4c4.6-2.7,7.6-0.3,7.8-0.1c1,0.8,3,1.8,5.3,1.8 c1.6,0,3.4-0.5,5.2-1.8c2.7-2,5.3-1,6.4-0.4v7.8H34.1z"/> </g> <g id="_x32_1"/> <g id="_x32_2"/> <g id="_x32_3"/> <g id="_x32_4"/> </g>
</svg>