<svg width="199" height="89" viewBox="0 0 199 89" fill="none" xmlns="http://www.w3.org/2000/svg">
<path d="M22.6038 82.4762C22.2118 83.8035 21.6795 84.8027 21.0071 85.4738C20.3218 86.1213 19.4481 86.6043 18.3858 86.9228L19.8812 87.7803L19.7201 88.3257L12.3059 86.1332L12.5234 85.3968C14.9948 86.1276 17.0745 86.278 18.7625 85.848C20.4559 85.3998 21.555 84.3211 22.0599 82.6119C22.2962 81.8119 22.2849 81.0474 22.026 80.3184C21.7489 79.584 21.2926 78.9548 20.657 78.4307C20.0215 77.9067 19.2948 77.5237 18.4771 77.2819C17.4776 76.9864 16.5836 76.9691 15.7952 77.2302C14.9939 77.4678 14.3058 77.8574 13.7308 78.3991C13.1559 78.9409 12.4828 79.6809 11.7116 80.6194C10.9115 81.5888 10.224 82.3443 9.64906 82.8861C9.05593 83.4224 8.36513 83.8211 7.57667 84.0822C6.7754 84.3198 5.86595 84.2881 4.84832 83.9872C3.83069 83.6862 2.98282 83.1785 2.30471 82.4639C1.63198 81.7311 1.18931 80.8885 0.97669 79.9359C0.769443 78.9652 0.818886 77.9616 1.12502 76.9252C1.31299 76.2888 1.60732 75.6938 2.00799 75.14C2.41403 74.5681 2.85413 74.115 3.3283 73.7808C3.78429 73.4411 4.18927 73.2742 4.54322 73.28L2.53296 72.3593L2.68603 71.8411L8.11039 73.4452L7.9251 74.0725C7.10735 73.8307 6.28299 73.7451 5.452 73.8157C4.62102 73.8863 3.87799 74.1608 3.22291 74.6393C2.5732 75.0996 2.11676 75.7752 1.85359 76.6662C1.51524 77.8117 1.62026 78.8609 2.16865 79.8139C2.72242 80.7487 3.68075 81.4177 5.04366 81.8207C5.82506 82.0518 6.54741 82.0479 7.21073 81.8091C7.85588 81.5649 8.43702 81.203 8.95415 80.7233C9.47665 80.2253 10.1128 79.5435 10.8624 78.6778C11.7332 77.67 12.5004 76.8787 13.1642 76.3039C13.8151 75.7056 14.5947 75.2738 15.503 75.0086C16.3984 74.7198 17.4094 74.742 18.5361 75.0752C19.4447 75.3439 20.2754 75.8762 21.0283 76.6722C21.763 77.4628 22.2831 78.3778 22.5886 79.4171C22.8941 80.4565 22.8992 81.4762 22.6038 82.4762Z" fill="black"/>
<path d="M20.4348 47.9395L20.8065 48.1483C20.6384 48.2931 20.5033 48.4564 20.4013 48.6383C20.1787 49.0351 20.1208 49.4483 20.2275 49.8778C20.327 50.2816 20.4857 50.599 20.7037 50.8302L29.1856 59.4748L28.4065 60.8637L19.6164 58.9274L25.8884 65.3525L25.1093 66.7413L13.4728 64.1849C12.4692 63.8822 11.7912 64.045 11.4387 64.6732C11.3367 64.8551 11.2595 65.0509 11.207 65.2606L10.8352 65.0518L13.2699 60.7117L13.6417 60.9205C13.453 61.1407 13.3123 61.3334 13.2195 61.4988C13.0989 61.7137 13.0475 61.9023 13.0652 62.0644C13.0922 62.21 13.1717 62.3199 13.3039 62.3942C13.3535 62.422 13.4371 62.4472 13.5548 62.4698L25.0583 65.1472L18.7972 58.7608L16.77 58.3072C16.1763 58.126 15.7561 58.0422 15.5094 58.0559C15.2628 58.0695 15.0884 58.1673 14.9864 58.3491C14.9215 58.4649 14.8628 58.6276 14.8103 58.8373L14.4385 58.6285L16.9567 54.1396L17.3284 54.3484C17.1398 54.5686 16.9851 54.7862 16.8645 55.0011C16.6419 55.3979 16.5354 55.7621 16.545 56.0936C16.5381 56.4158 16.6404 56.582 16.8521 56.5922L22.6038 57.9309L28.3555 59.2696L20.4811 51.227C20.3344 51.1011 20.228 51.0196 20.1619 50.9825C19.9141 50.8433 19.6648 50.8228 19.414 50.9212C19.156 50.9937 18.9436 51.1788 18.7766 51.4764C18.6375 51.7244 18.5443 51.9873 18.4971 52.2652L18.1253 52.0564L20.4348 47.9395Z" fill="black"/>
<path d="M37.7758 47.9395C36.579 49.285 35.2387 49.8936 33.7548 49.7651C32.2568 49.6241 30.6443 48.7846 28.9174 47.2468C28.0115 46.4401 27.2881 45.5422 26.7474 44.553C26.1925 43.5513 25.9319 42.5324 25.9656 41.4964C25.9977 40.4336 26.4043 39.4631 27.1854 38.585C28.4578 37.1545 29.8036 36.5255 31.2229 36.698C32.6281 36.8579 33.9393 37.4798 35.1567 38.5639C35.369 38.753 35.6324 39.0129 35.9469 39.3438L36.1191 39.5352L30.4313 45.9299C33.6524 48.6967 36.0251 49.2233 37.5494 47.5095C38.2297 46.7447 38.5001 45.9702 38.3605 45.186C38.2209 44.4018 37.8539 43.745 37.2594 43.2156C37.0187 43.0013 36.7851 42.9075 36.5585 42.9341C36.3444 42.9466 36.1555 43.0449 35.9918 43.229C35.8658 43.3706 35.7949 43.5359 35.779 43.7248C35.7616 43.887 35.8095 44.0185 35.9228 44.1193L35.7527 44.3106L35.1794 43.8L37.5793 41.102C38.155 41.5385 38.5732 42.152 38.8339 42.9426C39.1073 43.719 39.1626 44.5551 39 45.4509C38.8374 46.3467 38.4293 47.1763 37.7758 47.9395ZM34.0433 41.2273C34.27 40.9724 34.3811 40.8048 34.3764 40.7245C34.3702 40.6174 34.2743 40.4685 34.0887 40.2779C33.9456 40.1251 33.7183 39.91 33.4069 39.6327C32.3311 38.6747 31.263 38.0789 30.2025 37.8452C29.142 37.6115 28.196 37.9621 27.3646 38.8969C26.5583 39.8033 26.4499 40.8236 27.0393 41.9576C27.6288 43.0916 28.6532 44.3212 30.1128 45.6463L34.0433 41.2273Z" fill="black"/>
<path d="M49.3265 36.698C47.8903 37.784 46.4571 38.1191 45.0268 37.7034C43.5851 37.2726 42.1674 36.1344 40.7736 34.289C40.0424 33.3209 39.5081 32.299 39.1707 31.2233C38.8218 30.1325 38.7649 29.0823 39 28.0728C39.2388 27.0367 39.8268 26.1642 40.7641 25.4555C42.291 24.301 43.7337 23.9468 45.0921 24.3931C46.439 24.8243 47.6038 25.6903 48.5863 26.9912C48.7576 27.2181 48.9653 27.5245 49.2093 27.9104L49.3408 28.1318L42.5151 33.2929C45.1347 36.6356 47.3591 37.6153 49.1884 36.2321C50.0048 35.6148 50.421 34.908 50.437 34.1116C50.4531 33.3152 50.2212 32.5994 49.7413 31.964C49.5471 31.7069 49.3363 31.5693 49.1088 31.5511C48.8965 31.5216 48.692 31.5811 48.4955 31.7297C48.3443 31.844 48.2426 31.9923 48.1902 32.1745C48.1415 32.3301 48.1628 32.4684 48.2542 32.5895L48.0501 32.7438L47.5874 32.1312L50.3223 29.9681C50.8018 30.5086 51.2374 31.1774 51.3389 32.0037C51.4556 32.8186 51.3468 33.6494 51.0126 34.4963C50.6784 35.3431 50.1163 36.077 49.3265 36.698ZM46.9748 29.3861C47.247 29.1803 47.3886 29.0376 47.3996 28.9579C47.4144 28.8517 47.3494 28.687 47.2046 28.4638C47.094 28.2859 46.9131 28.0306 46.6617 27.6979C45.7934 26.5482 44.862 25.7553 43.8675 25.3191C42.873 24.8828 41.8768 25.0419 40.8791 25.7964C39.9115 26.528 39.6062 27.5074 39.9631 28.7347C40.3201 29.9621 41.0851 31.368 42.2581 32.9526L46.9748 29.3861Z" fill="black"/>
<path d="M62.8237 28.4638C62.2 28.7843 61.6743 28.7561 61.2464 28.3792C60.8268 27.9767 60.3789 27.3117 59.9027 26.3841L55.3442 17.5046L53.6756 18.3622L53.4807 17.9827L55.1494 17.1251L53.7598 14.4182C54.1138 14.2363 54.3144 13.984 54.3618 13.6612C54.426 13.3298 54.3932 13.0376 54.2633 12.7846L54.7942 12.5118L56.717 16.3194L58.7902 15.2539L58.985 15.6334L56.9118 16.6989L61.4579 25.6167C61.8043 26.2913 62.1143 26.7501 62.3882 26.993C62.6702 27.2104 62.9545 27.2455 63.241 27.0982C63.5781 26.925 63.7783 26.6302 63.8416 26.2141C63.9049 25.7979 63.8919 25.3783 63.8025 24.9552C63.7214 24.5067 63.6245 24.1728 63.512 23.9536L63.7648 23.8236C64.0072 24.2958 64.1531 24.8497 64.2024 25.4851C64.243 26.1037 64.1519 26.694 63.9292 27.2561C63.7147 27.7927 63.3462 28.1952 62.8237 28.4638Z" fill="black"/>
<path d="M91.2781 22.7948C89.6805 22.9992 88.0943 22.6956 86.5197 21.8839C84.9614 21.0511 83.6418 19.8437 82.5609 18.2616C81.48 16.6796 80.8158 14.92 80.5683 12.9829C80.2991 10.8766 80.4712 8.93356 81.0843 7.15394C81.6975 5.37433 82.6582 3.92298 83.9666 2.7999C85.2749 1.67681 86.8031 1.00346 88.5512 0.77985C89.5286 0.65482 90.6806 0.775053 92.0072 1.14055C93.3526 1.50364 94.3223 1.99126 94.9163 2.60339L95.0689 0.433505L95.5482 0.372192L96.352 6.66312L95.76 6.73886C95.635 5.7609 95.2105 4.83081 94.4865 3.9486C93.7812 3.06398 92.8721 2.37748 91.759 1.88909C90.6459 1.40071 89.4691 1.23586 88.2285 1.39455C86.9504 1.55805 85.8709 2.15489 84.9901 3.18506C84.1092 4.21523 83.4878 5.55627 83.1258 7.20819C82.7613 8.8413 82.7029 10.6264 82.9504 12.5635C83.1883 14.4254 83.6831 16.1302 84.4349 17.6779C85.203 19.2043 86.2134 20.3844 87.4662 21.2181C88.7377 22.0494 90.1911 22.3604 91.8263 22.1513C93.0293 21.9974 94.0844 21.5088 94.9917 20.6855C95.899 19.8622 96.5261 18.8645 96.873 17.6924C96.9125 17.5535 96.9761 17.1535 97.0635 16.4925C97.123 15.9114 97.1945 15.4244 97.278 15.0314C97.3779 14.6173 97.5308 14.2441 97.7367 13.9119L98.1314 13.8614C97.8643 14.1632 97.7107 14.6798 97.6704 15.4113C97.6489 16.1404 97.7187 17.135 97.8797 18.3951C97.9374 18.8464 97.6358 19.4011 96.9748 20.0591C96.3302 20.6958 95.4787 21.2826 94.4202 21.8194C93.3781 22.335 92.3307 22.6602 91.2781 22.7948Z" fill="black"/>
<path d="M111.837 8.80472C111.819 9.0315 111.761 9.28355 111.662 9.56088C111.564 9.83821 111.503 10.0045 111.479 10.0596C111.288 10.5387 111.186 10.8633 111.172 11.0333C111.141 11.4113 111.4 11.6225 111.947 11.667L111.924 11.9505C111.15 11.8876 110.609 11.6439 110.301 11.2194C110.012 10.7965 109.893 10.2732 109.944 9.64959C109.968 9.34723 110.02 9.05661 110.1 8.77775C110.258 8.23891 110.349 7.81831 110.374 7.51594C110.4 7.19468 110.351 6.97199 110.228 6.84786C110.126 6.70637 109.942 6.62489 109.678 6.60341C109.13 6.55892 108.657 7.11024 108.26 8.25737C107.864 9.38559 107.604 10.7245 107.478 12.2741L106.997 18.1986C106.958 18.69 106.966 19.0521 107.023 19.285C107.099 19.5195 107.288 19.6489 107.591 19.6735C107.742 19.6858 107.982 19.6577 108.31 19.5893L108.276 20.0145L103.601 19.6348L103.636 19.2096C103.949 19.3302 104.182 19.3966 104.333 19.4089C104.673 19.4365 104.899 19.3407 105.012 19.1216C105.126 18.8836 105.203 18.5284 105.241 18.056L106.06 7.96449C105.769 8.03597 105.463 8.05867 105.142 8.03259C105.009 8.02186 104.813 7.98685 104.551 7.92758L104.613 7.16221L104.868 7.18292C104.858 7.31521 104.914 7.43397 105.039 7.53919C105.182 7.64596 105.349 7.70701 105.537 7.72235C105.821 7.74536 106.075 7.66136 106.299 7.47036C106.524 7.27936 106.795 6.98748 107.112 6.59474L107.395 6.61775L107.237 8.91615L107.52 8.93916C107.827 7.97488 108.197 7.28207 108.63 6.86074C109.084 6.42204 109.538 6.2211 109.991 6.25791C110.652 6.31161 111.132 6.59793 111.433 7.11689C111.752 7.63738 111.887 8.19999 111.837 8.80472Z" fill="black"/>
<path d="M121.884 22.1464C120.143 21.6885 118.993 20.7686 118.436 19.3869C117.883 17.9867 117.9 16.1681 118.488 13.931C118.796 12.7574 119.268 11.7054 119.905 10.7749C120.546 9.82611 121.335 9.13203 122.274 8.69267C123.235 8.23981 124.284 8.1628 125.42 8.46165C127.271 8.94848 128.441 9.86398 128.931 11.2081C129.425 12.534 129.465 13.9854 129.051 15.5624C128.978 15.8374 128.866 16.1902 128.714 16.6206L128.621 16.861L120.347 14.6847C119.341 18.8114 119.947 21.1665 122.164 21.7497C123.154 22.01 123.967 21.9002 124.602 21.4204C125.238 20.9406 125.656 20.3157 125.859 19.5455C125.941 19.2338 125.918 18.9829 125.792 18.7928C125.684 18.6075 125.511 18.4836 125.273 18.4209C125.089 18.3727 124.91 18.3843 124.734 18.4558C124.582 18.5137 124.487 18.6161 124.448 18.7628L124.201 18.6977L124.396 17.955L127.887 18.8733C127.759 19.5845 127.402 20.2356 126.815 20.8263C126.248 21.4219 125.528 21.8501 124.656 22.1109C123.784 22.3717 122.86 22.3835 121.884 22.1464ZM126.173 15.776C126.503 15.8627 126.703 15.8858 126.772 15.8453C126.865 15.7912 126.954 15.6382 127.04 15.3863C127.111 15.1894 127.2 14.8893 127.306 14.4859C127.672 13.0923 127.719 11.8695 127.446 10.8177C127.174 9.7659 126.433 9.08092 125.224 8.76279C124.051 8.4543 123.093 8.81983 122.349 9.85939C121.606 10.8989 120.975 12.3698 120.455 14.2721L126.173 15.776Z" fill="black"/>
<path d="M136.409 27.0151C135.46 26.5405 134.807 25.8539 134.451 24.9552C134.103 24.0395 134.201 23.0389 134.743 21.9535C135.132 21.1733 135.725 20.6432 136.522 20.3632C137.327 20.0662 138.094 19.9728 138.823 20.0828C139.195 20.1421 139.615 20.2352 140.081 20.3623C140.573 20.4809 140.903 20.5614 141.073 20.6037C142.005 20.8579 142.717 21.023 143.208 21.0992C143.708 21.1585 144.064 21.0821 144.276 20.87C144.886 19.6489 145.157 18.5126 145.089 17.4612C145.038 16.4183 144.47 15.6256 143.385 15.0832C142.707 14.7442 142.075 14.7359 141.491 15.0582C140.931 15.3721 140.449 15.9361 140.042 16.7502C139.932 16.9707 139.894 17.153 139.928 17.2971C139.97 17.4243 140.144 17.5642 140.449 17.7167C140.635 17.8099 140.818 17.8481 140.996 17.831C141.174 17.814 141.292 17.7462 141.351 17.6275L141.58 17.7419L141.237 18.4288L137.906 16.7634C138.211 16.1529 138.69 15.6398 139.342 15.2241C140.003 14.7915 140.741 14.5454 141.554 14.4859C142.376 14.4094 143.168 14.5618 143.931 14.9432C144.948 15.4517 145.643 16.0959 146.016 16.8759C146.415 17.6474 146.576 18.4275 146.5 19.216C146.449 19.9961 146.263 20.7084 145.941 21.3529L143.184 26.8736C142.549 28.1456 142.503 28.9172 143.045 29.1884C143.214 29.2732 143.422 29.2392 143.668 29.0865C143.939 28.9253 144.134 28.726 144.252 28.4886L144.507 28.6157C144.193 29.2432 143.757 29.6292 143.198 29.7734C142.655 29.9262 142.138 29.8797 141.647 29.6339C141.07 29.3458 140.816 28.9007 140.884 28.2986C140.968 27.7051 141.239 26.9504 141.697 26.0345L142.281 24.8642C142.163 25.1017 141.82 25.4918 141.252 26.0346C140.701 26.5859 139.994 27.0058 139.129 27.2943C138.265 27.5828 137.358 27.4897 136.409 27.0151ZM137.35 26.5952C137.926 26.8833 138.574 26.9213 139.294 26.7092C140.015 26.497 140.676 26.1492 141.277 25.6657C141.879 25.1823 142.285 24.7285 142.497 24.3045L143.946 21.4043C143.92 21.4552 143.81 21.4637 143.615 21.4298C143.42 21.3959 143.183 21.3409 142.903 21.2646C141.657 21.0021 140.734 20.837 140.132 20.7693C139.191 20.6593 138.403 20.774 137.768 21.1133C137.141 21.4357 136.666 21.9191 136.344 22.5636C135.972 23.3098 135.845 24.073 135.964 24.8531C136.108 25.6246 136.57 26.2053 137.35 26.5952Z" fill="black"/>
<path d="M150.63 34.9614C150.067 34.5425 149.861 34.0579 150.01 33.5075C150.186 32.9532 150.586 32.2578 151.208 31.4213L157.165 23.4135L155.66 22.2927L155.914 21.9505L157.419 23.0713L159.235 20.6301C159.554 20.8679 159.869 20.9369 160.18 20.8371C160.505 20.7487 160.753 20.5905 160.923 20.3623L161.401 20.7189L158.833 24.1241L160.703 25.5165L160.448 25.8587L158.578 24.4663L152.582 32.4799C152.129 33.0883 151.854 33.569 151.757 33.922C151.686 34.2711 151.78 34.5419 152.039 34.7344C152.343 34.9608 152.695 35.0107 153.096 34.8841C153.498 34.7575 153.868 34.5608 154.209 34.2941C154.575 34.0236 154.832 33.7894 154.979 33.5917L155.207 33.7615C154.89 34.1874 154.458 34.5625 153.909 34.8868C153.372 35.1959 152.803 35.3743 152.2 35.422C151.624 35.4658 151.101 35.3123 150.63 34.9614Z" fill="black"/>
<path d="M171.294 31.7241C171.053 31.4828 170.926 31.208 170.912 30.8996C170.899 30.5912 171.006 30.3231 171.234 30.0952C171.461 29.8673 171.729 29.76 172.038 29.7734C172.346 29.7868 172.621 29.9142 172.862 30.1555C173.103 30.3969 173.223 30.6784 173.223 31.0002C173.25 31.3219 173.156 31.5901 172.942 31.8046C172.714 32.0325 172.446 32.1397 172.138 32.1263C171.83 32.1129 171.549 31.9788 171.294 31.7241ZM159.134 40.3514C159.295 40.6463 159.429 40.8474 159.536 40.9547C159.778 41.196 160.012 41.2697 160.24 41.1759C160.481 41.0686 160.769 40.8474 161.104 40.5123L168.259 33.353C167.991 33.219 167.743 33.038 167.515 32.8101C167.422 32.7162 167.294 32.562 167.134 32.3475L167.676 31.8046L167.857 31.9856C167.763 32.0794 167.73 32.2068 167.757 32.3676C167.797 32.5419 167.884 32.6961 168.018 32.8302C168.206 33.0179 168.447 33.1117 168.741 33.1117C169.036 33.1117 169.445 33.0648 169.967 32.9709L170.55 33.5541L162.35 41.7591C162.002 42.1077 161.774 42.3892 161.667 42.6037C161.573 42.8316 161.633 43.0528 161.848 43.2673C161.955 43.3746 162.156 43.5087 162.451 43.6695L162.149 43.9712L158.833 40.653L159.134 40.3514Z" fill="black"/>
<path d="M169.863 52.9462C168.705 51.3039 168.388 49.7525 168.912 48.2921C169.463 46.8363 170.621 45.4855 172.386 44.2397C174.012 43.0923 175.632 42.4947 177.244 42.4471C178.872 42.3885 180.26 43.1726 181.407 44.7995C182.554 46.4263 182.826 47.9973 182.225 49.5123C181.649 51.0319 180.549 52.3654 178.923 53.5128C177.158 54.7586 175.492 55.389 173.925 55.4038C172.375 55.4078 171.02 54.5886 169.863 52.9462ZM170.141 52.7495C170.884 53.8031 171.928 54.2149 173.273 53.9849C174.634 53.744 176.135 53.0443 177.776 51.886C179.309 50.8041 180.427 49.6437 181.131 48.4048C181.85 47.155 181.849 46.0188 181.128 44.9962C180.407 43.9736 179.338 43.5914 177.92 43.8496C176.528 44.1124 175.066 44.7847 173.533 45.8666C171.892 47.0249 170.729 48.2049 170.046 49.4064C169.378 50.5971 169.41 51.7114 170.141 52.7495Z" fill="black"/>
<path d="M182.369 71.781C181.932 71.9656 181.619 72.1496 181.429 72.3329C181.257 72.5089 181.237 72.754 181.37 73.0683C181.429 73.208 181.565 73.4078 181.777 73.6678L181.385 73.834L179.502 69.3811L179.895 69.2149C179.933 69.5487 179.982 69.7854 180.041 69.9251C180.159 70.2045 180.338 70.3348 180.577 70.316C180.823 70.3147 181.173 70.218 181.627 70.026L188.642 67.0569C189.847 66.5472 190.682 65.8952 191.149 65.1007C191.623 64.3237 191.69 63.5336 191.35 62.7304C191.025 61.962 190.458 61.4714 189.648 61.2584C188.863 61.0555 188.019 61.0316 187.118 61.1866C186.224 61.3591 185.401 61.6042 184.651 61.9218L179.18 64.2373C178.726 64.4293 178.409 64.6046 178.229 64.763C178.057 64.939 178.029 65.1666 178.148 65.446C178.207 65.5857 178.343 65.7856 178.555 66.0455L178.163 66.2117L176.28 61.7588L176.673 61.5926C176.711 61.9264 176.76 62.1631 176.819 62.3028C176.952 62.6172 177.141 62.7737 177.388 62.7723C177.651 62.7636 178.001 62.667 178.438 62.4823L187.731 58.5493C187.533 58.3243 187.371 58.0634 187.246 57.7665C187.194 57.6443 187.134 57.4535 187.066 57.1943L187.773 56.8952L187.872 57.1309C187.75 57.1826 187.671 57.288 187.636 57.4472C187.607 57.6238 187.63 57.7995 187.704 57.9741C187.807 58.2186 187.996 58.3962 188.269 58.507C188.542 58.6179 188.938 58.7281 189.458 58.8376L189.657 59.3091L187.548 60.2327L187.703 60.5994C188.621 60.5813 189.439 60.7396 190.156 61.0741C190.899 61.4187 191.443 62.0013 191.79 62.8221C192.071 63.4856 192.173 64.2143 192.097 65.0082C192.046 65.8121 191.786 66.5602 191.318 67.2526C190.866 67.9375 190.222 68.4573 189.384 68.8118L182.369 71.781Z" fill="black"/>
<path d="M184.117 82.757C183.799 81.2159 184.15 79.9141 185.169 78.8516L183.614 78.9117L183.539 78.5496L188.521 77.5195L188.625 78.0208C187.029 78.3508 185.895 78.8563 185.223 79.5373C184.57 80.2145 184.352 81.0823 184.571 82.1406C184.751 83.0133 185.182 83.6018 185.864 83.9061C186.565 84.2066 187.388 84.259 188.335 84.0633C189.095 83.906 189.643 83.5121 189.977 82.8815C190.315 82.2696 190.62 81.4031 190.891 80.2821C191.08 79.5075 191.262 78.8891 191.437 78.4268C191.613 77.9646 191.864 77.5447 192.193 77.1671C192.525 76.808 192.969 76.5709 193.526 76.4558C194.658 76.2218 195.603 76.3943 196.361 76.9732C197.142 77.5669 197.645 78.4115 197.871 79.507C198.006 80.1569 197.974 80.8023 197.778 81.4431C197.603 82.0986 197.359 82.5074 197.044 82.6693L198.504 82.5707L198.579 82.9328L194.932 83.6867L194.846 83.2689C195.662 83.1001 196.344 82.6979 196.89 82.0623C197.436 81.4267 197.624 80.7004 197.456 79.8834C197.145 78.3794 196.164 77.7981 194.512 78.1396C193.937 78.2585 193.517 78.5679 193.253 79.0679C192.988 79.5678 192.711 80.3319 192.42 81.36C192.173 82.2243 191.932 82.9323 191.698 83.4841C191.482 84.0321 191.149 84.5269 190.698 84.9686C190.251 85.4288 189.657 85.7356 188.915 85.8891C188.284 86.0195 187.628 85.9809 186.946 85.7733C186.265 85.5657 185.657 85.1977 185.122 84.6694C184.61 84.1558 184.275 83.5183 184.117 82.757Z" fill="black"/>
</svg>
